<mxfile host="65bd71144e">
    <diagram name="Page-1" id="9i7czaBuTBBlm1sqoH-b">
        <mxGraphModel dx="4700" dy="3612" grid="1" gridSize="10" guides="1" tooltips="1" connect="1" arrows="1" fold="1" page="1" pageScale="1" pageWidth="827" pageHeight="1169" math="0" shadow="0">
            <root>
                <mxCell id="0"/>
                <mxCell id="1" parent="0"/>
                <mxCell id="SYWW4t_z87Z5bDbo1B_z-1" value="" style="ellipse;shape=cloud;whiteSpace=wrap;html=1;strokeWidth=4;perimeterSpacing=13;fillStyle=auto;fillColor=#141414;" parent="1" vertex="1">
                    <mxGeometry x="50" y="-10" width="1869" height="1030" as="geometry"/>
                </mxCell>
            </root>
        </mxGraphModel>
    </diagram>
</mxfile>